<svg width="156" height="143" viewBox="0 0 156 143" fill="none" xmlns="http://www.w3.org/2000/svg">
<path d="M107.872 44.8625V8.41155C107.872 5.31322 104.902 2.80371 101.234 2.80371C97.5697 2.80371 94.5958 5.31602 94.5958 8.41155V36.4508H61.4043V8.41155C61.4043 5.31322 58.4336 2.80371 54.766 2.80371C51.1016 2.80371 48.1277 5.31602 48.1277 8.41155V44.8625C48.1277 57.2503 36.2385 67.2939 23.2341 67.2939C23.2341 73.3501 23.2341 116.856 23.2341 122.643C23.2341 132.336 32.5376 140.196 44.0119 140.196H111.988C123.462 140.196 132.766 132.336 132.766 122.643C132.766 110.04 132.766 72.1206 132.766 67.2939C119.762 67.2939 107.872 57.2503 107.872 44.8625Z" fill="#F2D137"/>
<path d="M107.872 84.1177V95.3334L79.1617 102.764L48.1277 95.3334V84.1177H107.872Z" fill="#199F10"/>
<path d="M107.872 95.3335V109.353C107.872 113.999 103.415 117.765 97.9149 117.765H58.0851C52.5853 117.765 48.1277 113.999 48.1277 109.353V95.3335H107.872Z" fill="white"/>
<path d="M107.872 81.314H48.1277C46.2948 81.314 44.8085 82.5696 44.8085 84.1179V109.353C44.8085 115.538 50.7644 120.569 58.0851 120.569H97.9149C105.236 120.569 111.192 115.538 111.192 109.353V84.1179C111.192 82.5696 109.705 81.314 107.872 81.314ZM104.553 86.9218V92.5297H51.4468V86.9218H104.553ZM97.9149 114.961H58.0851C54.4248 114.961 51.4468 112.445 51.4468 109.353V98.1375H104.553V109.353C104.553 112.445 101.575 114.961 97.9149 114.961Z" fill="black"/>
<path d="M139.648 78.5098H136.085V67.2941C136.085 65.7455 134.599 64.4902 132.766 64.4902C121.273 64.4902 111.191 55.3186 111.191 44.8627V8.41177C111.191 3.77352 106.725 0 101.234 0C95.7435 0 91.2766 3.77352 91.2766 8.41177V33.6471H64.7234V8.41177C64.7234 3.77352 60.2565 0 54.766 0C49.2754 0 44.8085 3.77352 44.8085 8.41177V44.8627C44.8085 55.3186 34.7269 64.4902 23.234 64.4902C21.4012 64.4902 19.9149 65.7455 19.9149 67.2941V78.5098H16.3525C7.33565 78.5098 0 84.7068 0 92.3239V123.373C0 124.921 1.48632 126.176 3.31915 126.176C5.15198 126.176 6.6383 124.921 6.6383 123.373V92.3239C6.6383 87.7989 10.996 84.1177 16.3525 84.1177H19.9149V122.644C19.9149 133.868 30.7247 143 44.0119 143H111.988C125.275 143 136.085 133.868 136.085 122.644V84.1177H139.648C145.004 84.1177 149.362 87.7989 149.362 92.3239V123.373C149.362 124.921 150.848 126.176 152.681 126.176C154.514 126.176 156 124.921 156 123.373V92.3239C156 84.7068 148.664 78.5098 139.648 78.5098ZM129.447 122.644C129.447 130.776 121.615 137.392 111.988 137.392H44.0119C34.3851 137.392 26.5532 130.776 26.5532 122.644V69.9068C39.861 68.3778 51.4468 57.9153 51.4468 44.8627V8.41177C51.4468 6.86568 52.9358 5.60784 54.766 5.60784C56.5961 5.60784 58.0851 6.86568 58.0851 8.41177V36.451C58.0851 37.9996 59.5714 39.2549 61.4043 39.2549H94.5957C96.4286 39.2549 97.9149 37.9996 97.9149 36.451V8.41177C97.9149 6.86568 99.4039 5.60784 101.234 5.60784C103.064 5.60784 104.553 6.86568 104.553 8.41177V44.8627C104.553 57.9186 116.144 68.3787 129.447 69.9068V122.644Z" fill="black"/>
</svg>
