<?xml version="1.0" encoding="UTF-8"?>
<svg id="Capa_1" data-name="Capa 1" xmlns="http://www.w3.org/2000/svg" viewBox="0 0 1920 1080">
  <defs>
    <style>
      .cls-1 {
        fill: #c53433;
      }

      .cls-2 {
        fill: #bf2c62;
      }

      .cls-3 {
        fill: #bc65a8;
      }

      .cls-4 {
        fill: #f06625;
      }

      .cls-5 {
        fill: #5e5ca8;
      }

      .cls-6 {
        fill: #5e5ba8;
      }

      .cls-7 {
        fill: #d75fa2;
      }

      .cls-8 {
        fill: #9ecb4d;
      }

      .cls-9 {
        fill: none;
      }

      .cls-10 {
        fill: #f9a41d;
      }

      .cls-11 {
        fill: #04a5a0;
      }

      .cls-12 {
        fill: #ef6522;
      }

      .cls-13 {
        fill: #6cbc46;
      }

      .cls-14 {
        fill: #c8952c;
      }

      .cls-15 {
        fill: #5e5ba9;
      }

      .cls-16 {
        fill: #c74571;
      }

      .cls-17 {
        fill: #59caeb;
      }

      .cls-18 {
        fill: #61c9e9;
      }

      .cls-19 {
        fill: #c7302e;
      }

      .cls-20 {
        fill: #8fc73e;
      }

      .cls-21 {
        fill: #05a9a0;
      }

      .cls-22 {
        fill: #ae6aa9;
      }

      .cls-23 {
        fill: #db59a1;
      }

      .cls-24 {
        fill: #5c5aa5;
      }

      .cls-25 {
        fill: #ba529f;
      }

      .cls-26 {
        fill: #ce7d5a;
      }
    </style>
  </defs>
  <path class="cls-9" d="M866.33,820.54c-31.87-63.99-135.59-153.18-186.79-153.18-62.11,0-23.75,123.62-8.56,171.39,20.94,65.84,57.77,154.94,101.84,184.41,45.51,30.43,101.62-10.99,137.16,56.84h22.78c-8.12-16.27-19.89-32.18-26.71-48.26-27.43-64.76-3.46-138.38-39.72-211.2Z"/>
  <path class="cls-9" d="M1847.51,1016.45c-161.89,5.81-324,84.74-486.37,4.55l-384.89.19c-16.54,4.95-2.6,38.45,7.91,58.81h922.71c2.59-54.72-27.74-64.69-59.36-63.55Z"/>
  <path class="cls-9" d="M1813.94,93.04c-42.52,33.71-83.37,205.23-77.44,276.37,3.61,43.27,19.49,42.19,41.55,30.85,36.68-18.84,122.29-134.52,127.69-197.27,3.72-43.24-7.12-93.18-1.94-133.51.95-7.4,8.15-29.71,16.2-51.11V4h-6.4c-2.31,5.14-4.21,9.18-4.84,10.4-37.32,72.06-52.73,45.26-94.82,78.64Z"/>
  <path class="cls-9" d="M712.76,110.06c-28.13,10.97-51.87,1.57-78.5,32.63-35.7,41.66-84.62,192.99-77.63,262.81,5.88,58.68,71.99,3.1,90.13-13.58,32.77-30.13,89.57-98.57,93.56-161.59,2.93-46.35-6.21-77.19,8.05-122.13,6.36-20.05,31.17-71.1,50.54-104.19h-10.22c-21.45,42.79-47.08,94.81-75.93,106.06Z"/>
  <path class="cls-9" d="M1560.42,396c.69-11.55-15.07-28.01-20.77-14.87l-42.23,90.67c7.65,3.53,15.32,6.95,23,10.28l40-86.08Z"/>
  <path class="cls-9" d="M1343.18,333.39c7.72,22.49,14.55,46.17,22.53,57.83,3.1,4.52,8.93,9.74,15.73,14.93,22.82-115.47,43.31-232.71,69.74-345.55,2.12-9.04,7.81-35.55,12.82-56.6h-12.02c-9.16,32.93-24.1,80.21-26.47,87.76-25.68,81.84-54.51,161.38-82.34,241.63Z"/>
  <path class="cls-9" d="M1344.89,457.93c-17.7,4.81-34.35,25.01-54.1,32.49-12.81,41.79-24.75,92.93-9.82,112.85,2.3,3.07,4.64,5.57,7.01,7.59,0-.02.02-.04.03-.06,4.77,2.65,9.57,5.11,14.36,6.85,10.04,1.42,20.38-3.12,30.58-9.11,2.83-4.74,5.43-10.25,7.8-16.27,7.82-31.42,15.1-63.24,22.03-95.34.31-1.85.61-3.54.89-5.07.33-1.83.65-3.66.99-5.49.12.04.25.08.37.12,1.94-9.09,3.85-18.21,5.73-27.34-10.15-2.41-19.05-3.08-25.86-1.23Z"/>
  <path class="cls-9" d="M265.39,962.87c14.14-43.43-20.41-60.7-39.9-70.31-63.15-31.17-146.46-59.34-212.02-81.28-4.52-1.51-8.89-3.38-13.47-3.32v24.37c67.07,34.67,129.42,90.48,195.14,130.98,21.48,13.24,55.38,45.25,70.26-.43Z"/>
  <path class="cls-9" d="M1096.59,135.45c.18-11.88-6.45-33.37-11.97-40.79-8.75-11.75-23.04-12.4-33.8-9.36-118.64,106.22-213.51,277.84-337.77,371.51-44.83,33.79-84.64,51.04-129.17,91.49-100.21,91.03-195.91,202.01-296.19,293.79-11.53,21.19,17.02,42.96,27.53,46.08,27.96,8.3,57.01-11.3,81.89-29.62,54.79-40.36,125.02-111.68,176.07-165.36,58.61-61.62,96.99-120.26,148.86-190.62,88.32-119.81,221.79-194.88,323.93-285.61,20.23-17.97,49.96-38.65,50.62-81.53Z"/>
  <path class="cls-9" d="M0,196.54v20.08l5.38-9.87c1.91-5.11-2.01-11.26-5.38-10.21Z"/>
  <path class="cls-9" d="M1588.9,432.78c.85-18.18-14.57-27.67-21.12-11.43l-31.42,67.5c7.55,3.15,15.11,6.22,22.68,9.23l29.85-65.3Z"/>
  <path class="cls-9" d="M1327.49,190.57c-10.45,21.94-23.59,45.87-36.77,69.16,14.33,8.99,26.96,20.68,36.22,35.72,3.5,5.69,6.72,12.64,9.74,20.21,35.52-102.53,71.89-204.47,101.58-311.66h-62.48c-16.7,33.44-43.15,80.92-42.92,110.77.26,33.81,10.6,42.26-5.37,75.81Z"/>
  <path class="cls-9" d="M1391.46,413.35c10.01,6.84,20.27,13,26.28,16.61,5.67,3.4,11.36,6.71,17.08,9.94l67.95-171.4c26.79-45.87,53.48-21.4,83.5-38.16,26.71-14.91,70.83-108.34,88.9-146.52,12.13-25.63,23.07-52.99,34.35-79.82h-77.97c-7.44,49.91-47.68,88.62-75.62,97.13-46.67,14.23-27.97-54.36-10.43-97.13h-68.23c-12.21,53.5-25.74,106.35-37.29,160.21-17.45,81.41-32.28,166.13-48.53,249.15Z"/>
  <path class="cls-9" d="M35.76,603.84c12.71,17.61,31.53,14.44,44-2.39,10.92-14.74,20.19-62.55,25.32-85.68C143.51,342.44,168.23,173.31,214.27,5.75c.16-.59.31-1.17.45-1.75h-14.47c-43.11,163.28-105.45,312.96-154.53,471.38-11.65,37.61-35.49,93.07-9.96,128.46Z"/>
  <path class="cls-9" d="M1526.51,373.72c9.08-27.69-3.29-46.91-18.16-24.37l-48.39,104.15c7.76,4.02,15.56,7.91,23.38,11.67l43.16-91.45Z"/>
  <path class="cls-9" d="M31.49,96.48c4.15-6.88,8.05-14.18,11.88-21.58-.13-.11-.27-.22-.4-.34,3.27-5.88,6.28-11.38,8.83-16.07,2.09-4.05,4.19-8.06,6.34-11.99l.2.02c7.71-13.96,15.38-28.04,22.71-42.53H0v123.58c2.31-.14,4.64-.47,7-1.32,9.15-3.29,18.1-19.17,24.49-29.78Z"/>
  <path class="cls-9" d="M108.24,1053.92c39.04-11.95,95.67-48.1,115.52,26.08h193.29c2.18-.66,4.36-1.35,6.53-2.08,73.35-24.95,145.16-61.38,219.03-83.14,25.89,11.04,36.64,46.85,34.56,85.23h214.33c-36.6-45.47-81.99-10.57-125.68-41.22-53.8-37.75-129.77-223.55-132.68-315.5-1.25-39.47,12.2-69.76,37.75-73.75,60.08-9.38,189.89,103.39,217.68,189.62,15.37,47.67,10.29,87.58,16.23,136.11,5.98,48.87,26.92,67,42.54,104.75h24.64c-11.47-22.06-18.64-53.92-2.74-74l406.03-2.51c153.55,74.07,311.44,1.31,466.59-4.55,40.96-1.55,75.33,4.48,78.14,71.14v-165.72c-13.99,9.57-28.53,15.46-45.31,9.87-22.74-7.58-28.38-30.11-56.56-22.95-80.68,20.49-165.79,102.09-244.9,137.17-30.33,4.72-37.82-52.97-9.02-68.62,29.27-11.17,58.96-20.08,88.66-29.04-3.83-.18-3.52-5.65,1.13-11.85l106.21-103.56c4.33-6.15-1.65-19.57-7.18-14.3l-106.52,105.98c-4.33.84-5.96-5.78-2.72-9.84l105.06-103.68c5.13-4.77,4.67-16.8-1.67-17.84-5.77-.95-86.15,84.45-98.78,96.18-5.56,5.17-19.69,20.05-12.83-.73l106.07-104.02c4.83-7.69,1.23-20.54-5.6-16.36l-108.27,107.34-3.32-4.51c37.68-49.23,77.07-95.61,117.12-140.04,14.47-10.47,25.48,4.66,39.68,6.57,11.72,1.58,26.18-12.01,36.34-20.84,11.17-9.7,21.78-21.22,32.49-32.33-.28-.35-.57-.69-.85-1.04l70.78-80.82v-118.32c-35.55,51.47-72.3,97.11-110.73,139.49,28,43.44,6.05,116.6-45.04,95.92-9.99-6.13-19.93-12.46-29.83-18.93-16.68,16.1-33.69,31.94-51.07,47.68-34.29,31.07-89.29,86.45-129.2,81.5-23.86-2.96-68.81-39.36-38.4-78.08,40.59-37.95,80.23-78.62,119.71-119.73-23.11-16.49-46.22-32.98-69.48-48.87-29.96,51.72-62.19,102.83-87.3,145.66-7.46,12.73-38.9,79-46.59,78.78-1.54-.05-6.06-7.62-1.47-11.16l106.37-232.67c-7.01-4.58-14.04-9.09-21.09-13.5l-102.67,220.56c-7.77,4.29-17.24-1.64-11.49-15.86l99.35-213.82c-1.58-.95-3.15-1.91-4.73-2.85-4.82-2.87-10.59-6.35-17.04-10.17l-93.7,201.16c-7.19,12.78-17.21,5.78-13.15-11.74l93.18-197.42c-7.14-4.12-14.77-8.42-22.63-12.67l-89.05,191.69c-4.82,4.27-13.33-2.69-9.79-13.15l75.54-190.53c-13.09-6.35-26.14-11.95-38.05-15.8-3.64,17.64-7.4,35.16-11.28,52.5-.17.89-.33,1.78-.49,2.67-4.45,23.74-7.65,51.73-17.76,75.62-1.18,6.16-3.08,12.26-5.9,18.26-7.65,16.29-20.68,25.87-32.85,25.4-14.53,3.55-31.33-7.65-41.09-28.58-17.19-36.86-6.92-77.66,5.12-114.82-3.58.24-7.25.13-10.98-.29-4.18,9.26-10.28,15.61-17.86,15.36l-.51-.06c-48.74-9.82-95.72-34.51-144.39-44.72-.02-.06-.03-.12-.05-.19-12.16-3.25-23.98-9.49-34.23-9.81-16.6-.52-31.16.99-39.77,6.78-22.67,15.21-20.6,30.9-55.32,27.24-19.24-2.03-27.48-7.54-49.27-11.61-4.48-.84-11.64-2.67-17.35-3.99-.03,0-.06-.01-.09-.02-11.17-2.14-34.9-5.18-44.04-8.49-10.28-3.72-8.42-9.17,1.67-9.65l90.88,9.51,10.68.61c7.55-.6,7.14-14.56-1.31-15.53l-16.62-1.59s0,.09-.01.13l-97.37-9.29c-5.12-2.98-3.88-8.78,1.53-8.86l96.7,9.58s0,.04,0,.05l14.66,1.45c7.79.98,12.79-7.51,6.33-13.41-1.79-1.63-14.76-3.52-32.48-5.44-.01.13-.02.25-.03.38-35.04-3.05-71.91-5.73-81.55-6.95-7.75-.98-27.14-2.35-17.14-9.07.9-.6,7.15.25,8.55-.44l8.66-.09,44.16,4.51s0-.08.01-.12l67.67,6.91c8.8-1.23,10.74-12.85,1.35-15.63l-25.9-2.51c-.83.26-1.72.37-2.64.28l-86.38-8.38c-23.83,19.09-47.08,39.15-69.08,61.17-63.48,63.55-108.36,150.34-170.24,219.59-50.19,56.17-216.54,228.02-269.97,236.47-20.05,3.17-58.22-1.96-68.92-34.25-12.65-38.2,9.97-51.74,26.45-69.25,89.69-95.29,202.43-213.03,296.64-293,51-43.29,103.21-62.82,155.55-112.53,92.86-88.19,176.93-225.55,268.15-311.32,7.59-7.13,18.74-17.21,27.3-19.53,56.71-15.4,76.84,87.85,24.87,142.93-63.48,67.28-140.03,116.13-212,172.77,26.76-.74,53.61-.92,80.49-.65,15.98-1.13,29.88-3.2,48.74-2.37,20.63,4.79,25.74,24.01,40.41,36.94,12.1,10.66,34.14,13.34,49.29,15.71,16.62,2.6,33.45,3.52,50.21,4.79,9.7-.43,18.34-.92,24.95-1.24,4.27-.21,8.62-.66,13.02-1.26-15.96-16.08-30.32-33.64-41.52-50.15-65.43-96.42-24.79-148.17,48.88-151.5,10.92-.49,23.6-.13,36.98,1.5,17.37-46.18,35.61-91.62,54.39-136.35,11.08-18.15,24.78-10.46,38.44-16.92,11.27-5.33,21.62-26.38,29.06-40.5,6.22-11.8,11.9-24.38,17.52-37.02h-74.89c-17.43,62.88-86.69,131.27-116.12,129.36-35.6-2.31-19.04-82.88-3.61-129.36h-238.72c-7.14,16.04-12.64,31.82-12.55,43.91.2,26.48,8.31,33.11-4.21,59.38-14.18,29.76-34.68,64.24-50.69,92.59-4.48,7.94-13.3,25.61-17.7,31.28-4.96,6.38-6.97,1.98-4.07-6.47l58.89-123.82c2.06-6.45-4.71-13.52-7.79-7.16l-58.69,125.72c-3.01,2.58-5.38-1.5-3.74-5.94l58.03-123.38c2.88-5.81.4-14.38-4.41-12.25-4.38,1.93-47.69,100.75-54.8,115.06-3.13,6.3-10.77,23.57-9.49,5.3l58.71-124.09c2.14-7.8-2.78-15.54-7.01-9.38l-59.71,127.5-3.23-1.77c18.66-53.03,39.07-104.76,60.31-155.37,8.68-14.22,19.41-8.19,30.11-13.26,5.5-2.6,10.72-9.99,15.29-17.86h-87.18c-22.38,39.19-56.29,91.43-63.44,126.38-8.49,41.49,3.23,92.15-9.27,142.68-15.01,60.66-89.76,143.11-127.66,165.86-136.96,82.19-50.05-221.55-5.4-291.92,41.76-65.82,86.51-29.62,121.84-76.17,14.16-18.66,27.8-43.2,40.8-66.83h-225.69c-31.16,68.2-103.11,186.99-102.57,257.86.53,70.15,22,87.7-11.15,157.31-37.55,78.84-91.88,170.18-134.29,245.27-11.87,21.02-35.22,67.84-46.9,82.86-13.13,16.89-18.48,5.26-10.78-17.14l156.01-327.98c5.45-17.09-12.48-35.81-20.64-18.97l-155.46,333.02c-7.96,6.83-14.26-3.99-9.91-15.72l153.71-326.83c7.64-15.38,1.05-38.08-11.69-32.45-11.6,5.12-126.32,266.89-145.15,304.78-8.29,16.68-28.52,62.45-25.13,14.04l155.51-328.7c5.68-20.67-7.37-41.15-18.58-24.86l-158.18,337.75-8.56-4.7c49.43-140.48,103.5-277.51,159.76-411.57,22.99-37.67,51.42-21.7,79.76-35.11,23.38-11.07,44.87-54.74,60.31-84.03,17.51-33.22,32.95-69.43,48.87-104.82h-136.42l-9.84,18.77-.92,1.75c-5.32,22.92-2.29,44.84-7.79,68.57-12.22,52.77-78.54,109.33-113.02,98.93-30.7-9.25,1.1-95.72,10.38-118.19,14.08-34.08,28.11-58.7,50.71-69.83h-69.32l-7.7,31.6c-48.28,162.09-66.7,376.84-114.39,538.66-8.13,27.58-21.15,59.52-42.27,63.21-21.12,3.69-46.45-18.87-51.14-53.8-3.52-26.2-.06-43.83,5.84-67.67,29.23-118.01,88.84-261.07,126.94-378.37,14.26-43.92,27.71-88.78,40.91-133.64h-73.84c-17.78,26.22-36.96,51.45-54.73,77.99-13.81,23.69-30.4,52.56-31.09,72.86-.92,26.94,7.03,34.55-6.81,59.9-5.62,10.3-12.1,21.13-18.9,32.03v133.23c16.03,2.52,15.98,42.51,0,44.97v240.88c15.03,12.23,28.33,29.34,43.81,40.54,37.37,27.03,91.37,41.69,125.09,70.99,22.18,19.26,13.34,60.31-10.56,53.06-7.75-2.35-19.74-13.81-27.27-19.9-42.9-34.68-82.27-87.26-131.07-99.72v76.09l244.67,93.12c56.33,23.92,42.5,142.77-16.42,125.02L0,850.78v94.93c36.16,11.76,81.91,1.53,116.81,14.45,27.48,10.17,16.55,67.8-13.51,52.92L0,972.69v107.31h36.33c23.71-9.76,47.99-18.76,71.91-26.08ZM1283.13,970.57c-46.48-15.21-93.49-40.39-140.47-56.42.03-.31.08-.59.12-.88-18.39-6.01-46.5-18.36-58.47-8.5-13.21,10.88-13.28,23.87-31.49,18.47-20.62-6.12-46.15-18.41-66.8-27.44-5.78-2.53-18.18-6.66-22.8-10-5.19-3.76-3.79-8.09,1.61-7.78l85.76,25.35c4.06.03,4.89-11.43.47-12.8l-86.63-24.32c-2.5-2.79-1.4-7.46,1.48-7.15l85.19,24.42c4.07,1.35,7.37-5.26,4.38-10.54-2.73-4.8-69.69-20.33-79.72-23.65-4.42-1.46-16.15-4.26-6.47-9.96l85.82,25.01c4.77-.4,6.68-9.78,1.89-12.7l-87.94-24.92-.41-4.83c34.1,2.49,68.24,7.74,102.16,14.49,10.62,5.35,11.9,21.45,18.73,33.05,5.64,9.57,17.17,13.29,25.05,16.28,11.69,4.43,23.81,6.38,35.61,9.9l.3.96c16.5,3.04,31.8,5.27,41.66,6.75,28.21,4.23,74.63-2.28,100.58,11.02,16.93,8.67,16.89,58.22-9.63,56.2ZM778.13,550.84c75.54,12.6,210.56,82.74,287.96,121.81,21.43,10.81,42.45,22.87,64.1,31,34.66,13.02,217.83,45.54,230.38,69.7,20.78,40.01.59,59.52-24.82,56.23-49.04-6.36-153.99-82.33-212.86-101.61-72.07-23.61-137.43-20.46-216.43-51.21-47.48-18.48-132.88-37.84-146.16-124.4,5.59-2.8,11.43-2.59,17.83-1.52ZM295.39,962.21c24.11-10.56,61.26-5.65,87.04-10.06,24.06-4.11,117.09-20.12,131.73-37.96,20.13-24.54,14.03-48.03,50.17-55.17,22.13-4.37,111.67,4.52,75.58,66.17-17.51,29.91-64.9,55.73-90.35,49.22-24.04-6.15-20.59-31.95-59.69-26.87-59.39,7.71-127.65,61.83-184.06,71.82-28.86,5.11-35.44-46.19-10.41-57.15Z"/>
  <path class="cls-9" d="M1796.83,765.57c-7.5,31.64.21,45.54-22.35,67.5-25.55,24.88-60.02,50.67-87.34,72.51-7.5,6-22.69,20.03-29.78,23.85,37.59-11.35,75.15-22.97,111.84-39.51,13.77-6.21,41.26-18.14,52.61-28.81,15.86-14.92,21.36-49.5,36.02-68.67,15.17-19.84,39.16-27.84,62.17-28.87v-121.73c-16.93,13.18-36.12,27.39-49.29,37.3-21.74,21.9-66.38,54.76-73.88,86.43Z"/>
  <path class="cls-9" d="M1294.6,168.65c3.68-7.41.51-18.35-5.64-15.64-3.35,1.48-24.51,47.29-42.9,87.74,4.28,1.16,8.55,2.46,12.77,3.93l35.76-76.04Z"/>
  <path class="cls-9" d="M1281.85,148.25c2.74-9.96-3.55-19.83-8.95-11.98l-46.88,100.09c4.27.73,8.59,1.59,12.92,2.59l42.92-90.71Z"/>
  <path class="cls-9" d="M1310.17,182.38c2.62-8.24-6.01-17.26-9.95-9.14l-34.53,73.97c3.82,1.5,7.59,3.14,11.29,4.93l33.18-69.77Z"/>
  <path class="cls-9" d="M1635.07,280.9c-6.35,60.39,22.27,95.52-5.7,161.88-9.35,22.19-20.86,45.61-33.57,69.47,33.97,12.74,68.08,24.74,102.04,37.33,34.76-36,69.72-71.43,105.41-104.72,14.65-13.67,31.91-31.29,47.05-42.14,22.14-15.87,46.48-26.7,69.69-41.47V48.37c-.13.43-.27.87-.39,1.29-18.08,63.36,5.87,108.29-7.82,176.46-12.64,62.98-80.39,158.36-117.86,185.93-122.17,89.87-52.64-227.36-15.26-298.6,33.79-64.42,80.69-41.97,117.45-105.63.71-1.22,1.37-2.5,2.01-3.81h-143.99c-24.69,48.77-50.39,96.76-72.82,148.07-12.6,28.83-42.91,97.11-46.24,128.83Z"/>
  <path class="cls-2" d="M1841.86,998.42c-155.15,5.9-313.03,79.12-466.59,4.58l-406.03,2.53c-15.9,20.21-8.74,52.27,2.74,74.47h12.19c-10.51-20.09-24.45-53.12-7.91-58l384.89-.18c162.37,79.07,324.48,1.24,486.37-4.49,31.62-1.12,61.96,8.71,59.36,62.68h13.13v-9.99c-2.82-67.08-37.18-73.15-78.14-71.59Z"/>
  <path class="cls-15" d="M642.61,994.78c-73.87,21.76-145.68,58.19-219.03,83.14-2.17.74-4.34,1.42-6.53,2.08h260.11c2.08-38.37-8.67-74.18-34.56-85.22Z"/>
  <path class="cls-1" d="M888.57,839.15c-27.79-86.22-157.6-198.99-217.68-189.61-25.56,3.99-39,34.28-37.75,73.75,2.91,91.94,78.88,277.74,132.68,315.49,43.69,30.66,89.07-4.25,125.68,41.22h18.47c-35.54-67.83-91.65-26.41-137.16-56.84-44.07-29.47-80.9-118.57-101.84-184.41-15.19-47.77-53.55-171.38,8.56-171.39,51.19,0,154.92,89.19,186.79,153.18,36.26,72.82,12.28,146.44,39.72,211.2,6.81,16.08,18.59,32,26.71,48.26h14.58c-15.61-37.75-36.56-55.87-42.54-104.75-5.94-48.52-.86-88.44-16.23-136.1Z"/>
  <path class="cls-19" d="M244.67,880.05L0,786.94v21.02c4.59-.06,8.95,1.81,13.47,3.32,65.56,21.94,148.87,50.11,212.02,81.28,19.49,9.62,54.04,26.88,39.9,70.31-14.87,45.68-48.77,13.67-70.26.43-65.72-40.49-128.07-96.3-195.14-130.98v18.46l228.25,154.28c58.92,17.75,72.75-101.1,16.42-125.02Z"/>
  <path class="cls-11" d="M158.34,830.46c23.9,7.24,32.74-33.8,10.56-53.06-33.73-29.3-87.72-43.96-125.09-70.99-15.49-11.2-28.78-28.31-43.81-40.54v44.97c48.8,12.46,88.17,65.04,131.07,99.72,7.54,6.09,19.52,17.55,27.27,19.9Z"/>
  <path class="cls-22" d="M73.89,48.18c.18,2.88-1.05,4.54-2,6.57-3.4,7.27-8.97,16.74-15.08,27.23,17.77-26.54,36.95-51.77,54.73-77.99h-30.47c-7.33,14.49-15,28.56-22.71,42.53l15.54,1.65Z"/>
  <path class="cls-22" d="M43.37,74.9c2.82-5.45,5.62-10.95,8.43-16.4-2.55,4.69-5.55,10.19-8.83,16.07.13.11.27.22.4.34Z"/>
  <path class="cls-5" d="M108.24,1053.92c-23.93,7.32-48.2,16.33-71.91,26.08h187.43c-19.85-74.18-76.47-38.03-115.52-26.08Z"/>
  <path class="cls-17" d="M116.81,960.15c-34.9-12.92-80.65-2.68-116.81-14.45v26.98l103.3,40.38c30.06,14.89,40.99-42.75,13.51-52.91Z"/>
  <path class="cls-7" d="M0,380.02v44.97c15.98-2.46,16.03-42.45,0-44.97Z"/>
  <path class="cls-18" d="M1290.79,490.43c19.75-7.48,36.4-27.68,54.1-32.49,6.81-1.85,15.71-1.18,25.86,1.23,3.64-17.61,7.2-35.29,10.7-53.01-6.8-5.19-12.64-10.41-15.73-14.93-7.98-11.66-14.82-35.34-22.53-57.83-11.47,33.08-22.78,66.27-33.61,99.79-.67,2.08-1.35,4.14-2.02,6.22-3.56,11.09-10.27,29.86-16.76,51.02Z"/>
  <path class="cls-18" d="M1459.97,453.5l-16.97,36.54c7.86,4.25,15.49,8.55,22.63,12.67l17.72-37.54c-7.82-3.76-15.61-7.65-23.38-11.67Z"/>
  <path class="cls-18" d="M1417.74,429.96c-6.01-3.61-16.27-9.76-26.28-16.61-3.21,16.38-6.47,32.68-9.82,48.89,11.91,3.84,24.96,9.44,38.05,15.8l15.12-38.14c-5.71-3.22-11.4-6.53-17.08-9.94Z"/>
  <path class="cls-18" d="M1734.4,683.25c9.9,6.47,19.84,12.81,29.83,18.93,51.09,20.68,73.04-52.49,45.04-95.92-24.25,26.74-49.16,52.18-74.87,76.99Z"/>
  <path class="cls-18" d="M1497.42,471.8l-18.12,38.91c6.45,3.82,12.22,7.3,17.04,10.17,1.58.94,3.15,1.9,4.73,2.85l19.35-41.65c-7.69-3.33-15.36-6.75-23-10.28Z"/>
  <path class="cls-18" d="M1595.81,512.25c-9.42,17.7-19.5,35.63-29.85,53.5,23.26,15.89,46.37,32.38,69.48,48.87,20.81-21.67,41.58-43.46,62.41-65.04-33.96-12.59-68.07-24.6-102.04-37.33Z"/>
  <path class="cls-18" d="M1536.36,488.86l-20.48,43.99c7.05,4.42,14.08,8.92,21.09,13.5l22.07-48.27c-7.57-3.01-15.14-6.08-22.68-9.23Z"/>
  <path class="cls-18" d="M1297.62,431.13c12.64-38.78,25.79-77.17,39.07-115.47-3.03-7.57-6.24-14.52-9.74-20.21-9.26-15.04-21.88-26.73-36.22-35.72-9.65,17.05-19.31,33.74-27.95,49.04-5.72,10.13-16.97,32.69-22.6,39.93-6.33,8.14-8.9,2.53-5.2-8.26l42-88.29c-3.7-1.79-7.48-3.43-11.29-4.93l-40.38,86.51c-3.84,3.29-6.87-1.92-4.78-7.58l38.31-81.47c-4.23-1.47-8.5-2.77-12.77-3.93-12.33,27.11-23.41,51.81-27.05,59.13-3.99,8.04-13.75,30.09-12.11,6.77l32.03-67.7c-4.33-1.01-8.64-1.87-12.92-2.59l-29.35,62.67-4.12-2.26c7.33-20.83,14.89-41.48,22.6-61.99-13.39-1.63-26.07-1.99-36.98-1.5-73.66,3.33-114.3,55.09-48.88,151.5,11.2,16.5,25.56,34.06,41.52,50.15,28.22-3.83,58.83-13.94,86.02-8.15,18.62,3.97,19.76,43.7,9.58,66.22,3.73.42,7.4.53,10.98.29,3.51-10.84,7.18-21.38,10.35-31.42,3.25-10.28,6.55-20.53,9.88-30.75Z"/>
  <path class="cls-25" d="M1586.27,230.34c-30.03,16.76-56.71-7.71-83.5,38.16l-67.95,171.4-15.12,38.14-75.54,190.53c-3.54,10.46,4.97,17.41,9.79,13.15l89.05-191.69,16.97-36.54,48.39-104.15c14.87-22.54,27.23-3.32,18.16,24.37l-43.16,91.45-17.72,37.54-93.18,197.42c-4.06,17.53,5.96,24.52,13.15,11.74l93.7-201.16,18.12-38.91,42.23-90.67c5.7-13.14,21.46,3.32,20.77,14.87l-40,86.08-19.35,41.65-99.35,213.82c-5.76,14.22,3.71,20.15,11.49,15.86l102.67-220.56,20.48-43.99,31.42-67.5c6.55-16.24,21.97-6.76,21.12,11.43l-29.85,65.3-22.07,48.27-106.37,232.67c-4.58,3.54-.07,11.11,1.47,11.16,7.69.23,39.12-66.05,46.59-78.78,25.11-42.83,57.34-93.94,87.3-145.66,10.35-17.87,20.43-35.8,29.85-53.5,12.7-23.86,24.21-47.27,33.57-69.47,27.97-66.36-.65-101.5,5.7-161.88,3.33-31.72,33.64-100,46.24-128.83,22.43-51.31,48.13-99.29,72.82-148.07h-44.62c-11.28,26.83-22.22,54.19-34.35,79.82-18.07,38.18-62.19,131.61-88.9,146.52Z"/>
  <path class="cls-20" d="M394.22,192.85c-28.34,13.42-56.78-2.55-79.76,35.11-56.26,134.06-110.33,271.09-159.76,411.57l8.56,4.7,158.18-337.75c11.21-16.3,24.26,4.19,18.58,24.86l-155.51,328.7c-3.39,48.4,16.84,2.63,25.13-14.04,18.83-37.89,133.56-299.66,145.15-304.78,12.75-5.63,19.34,17.07,11.69,32.45l-153.71,326.83c-4.34,11.74,1.95,22.56,9.91,15.72l155.46-333.02c8.17-16.84,26.09,1.88,20.64,18.97l-156.01,327.98c-7.69,22.4-2.35,34.04,10.78,17.14,11.68-15.02,35.02-61.84,46.9-82.86,42.41-75.09,96.73-166.43,134.29-245.27,33.15-69.61,11.68-87.15,11.15-157.31-.54-70.87,71.41-189.66,102.57-257.86h-45.06c-15.93,35.38-31.37,71.6-48.87,104.82-15.44,29.29-36.93,72.96-60.31,84.03Z"/>
  <path class="cls-21" d="M1803.27,444.86c-35.7,33.29-70.65,68.72-105.41,104.72-20.84,21.58-41.6,43.37-62.41,65.04-39.48,41.11-79.12,81.78-119.71,119.73-30.41,38.72,14.54,75.11,38.4,78.08,39.92,4.96,94.91-50.43,129.2-81.5,17.38-15.74,34.39-31.58,51.07-47.68,25.7-24.81,50.62-50.25,74.87-76.99,38.43-42.37,75.18-88.01,110.73-139.49v-105.53c-23.2,14.77-47.55,25.6-69.69,41.47-15.14,10.85-32.4,28.48-47.05,42.14Z"/>
  <path class="cls-16" d="M846.74,383.55c5.64-.21,11.29-.38,16.94-.54,71.97-56.64,148.52-105.48,212-172.77,51.97-55.08,31.84-158.33-24.87-142.93-8.55,2.32-19.71,12.4-27.3,19.53-91.22,85.76-175.29,223.13-268.15,311.32-52.34,49.7-104.55,69.24-155.55,112.53-94.21,79.97-206.96,197.72-296.64,293-16.48,17.51-39.1,31.05-26.45,69.25,10.7,32.29,48.87,37.41,68.92,34.25,53.43-8.44,219.78-180.3,269.97-236.47,61.88-69.25,106.76-156.05,170.24-219.59,22-22.02,45.25-42.08,69.08-61.17l-6.62-.64-1.58-5.76ZM722.04,502.58c-51.87,70.36-90.25,128.99-148.86,190.62-51.05,53.67-121.28,125-176.07,165.36-24.88,18.33-53.93,37.92-81.89,29.62-10.51-3.12-39.06-24.88-27.53-46.08,100.28-91.78,195.98-202.76,296.19-293.79,44.53-40.45,84.34-57.7,129.17-91.49,124.26-93.67,219.13-265.29,337.77-371.51,10.75-3.04,25.05-2.39,33.8,9.36,5.52,7.41,12.15,28.91,11.97,40.79-.66,42.88-30.39,63.56-50.62,81.53-102.14,90.73-235.61,165.8-323.93,285.61Z"/>
  <path class="cls-14" d="M1857.83,792.44c-14.66,19.17-20.16,53.75-36.02,68.67-11.35,10.67-38.84,22.6-52.61,28.81-36.69,16.55-74.25,28.16-111.84,39.51-.14.07-.28.15-.41.22-1.67.84-3.03,1.19-4.08,1.14-29.69,8.96-59.38,17.87-88.66,29.04-28.81,15.65-21.31,73.34,9.02,68.62,79.11-35.08,164.22-116.68,244.9-137.17,28.18-7.16,33.82,15.38,56.56,22.95,16.78,5.59,31.33-.3,45.31-9.87v-140.78c-23.01,1.03-47,9.03-62.17,28.87Z"/>
  <path class="cls-13" d="M305.8,1019.35c56.41-9.99,124.68-64.11,184.06-71.82,39.1-5.08,35.65,20.73,59.69,26.87,25.44,6.51,72.84-19.31,90.35-49.22,36.09-61.65-53.45-70.54-75.58-66.17-36.14,7.14-30.04,30.63-50.17,55.17-14.64,17.84-107.67,33.84-131.73,37.96-25.77,4.41-62.93-.5-87.04,10.06-25.03,10.96-18.45,62.26,10.41,57.15Z"/>
  <path class="cls-18" d="M17.52,516.01c-5.9,23.83-9.36,41.46-5.84,67.67,4.69,34.93,30.02,57.49,51.14,53.8,21.13-3.69,34.15-35.63,42.27-63.21,47.68-161.83,66.11-376.57,114.39-538.66l7.7-31.6h-12.46c-.14.58-.29,1.16-.45,1.75-46.04,167.56-70.76,336.69-109.19,510.02-5.13,23.13-14.4,70.95-25.32,85.68-12.47,16.84-31.3,20.01-44,2.39-25.53-35.39-1.69-90.85,9.96-128.46C94.8,316.96,157.14,167.28,200.25,4h-14.87c-13.21,44.86-26.65,89.72-40.91,133.64-38.1,117.3-97.71,260.36-126.94,378.37Z"/>
  <path class="cls-4" d="M245.78,73.83c-9.28,22.46-41.08,108.93-10.38,118.19,34.48,10.39,100.81-46.17,113.02-98.93,5.5-23.73,2.47-45.65,7.79-68.57l.92-1.75c-3.87-6.12-7.53-12.41-11.26-18.77h-49.38c-22.61,11.13-36.64,35.75-50.71,69.83Z"/>
  <path class="cls-4" d="M366.97,4h-21.1c3.72,6.36,7.39,12.64,11.26,18.77l9.84-18.77Z"/>
  <path class="cls-23" d="M611.51,146.99c-44.65,70.37-131.55,374.12,5.4,291.92,37.9-22.74,112.65-105.2,127.66-165.86,12.5-50.53.78-101.19,9.27-142.68,7.15-34.95,41.06-87.19,63.44-126.38h-18.36c-19.37,33.09-44.18,84.15-50.54,104.19-14.26,44.94-5.11,75.78-8.05,122.13-3.99,63.02-60.79,131.46-93.56,161.59-18.13,16.67-84.25,72.26-90.13,13.58-7-69.82,41.92-221.15,77.63-262.81,26.62-31.06,50.36-21.66,78.5-32.63,28.85-11.24,54.48-63.27,75.93-106.06h-14.54c-13,23.62-26.64,48.16-40.8,66.83-35.33,46.55-80.08,10.35-121.84,76.17Z"/>
  <path class="cls-10" d="M1163.55,133.36c29.43,1.91,98.69-66.48,116.12-129.36h-119.72c-15.43,46.47-32,127.05,3.61,129.36Z"/>
  <path class="cls-3" d="M906.45,676.76c79,30.75,144.37,27.6,216.43,51.21,58.86,19.28,163.82,95.26,212.86,101.61,25.41,3.29,45.6-16.22,24.82-56.23-12.55-24.16-195.72-56.67-230.38-69.7-21.64-8.13-42.67-20.19-64.1-31-77.4-39.06-212.43-109.2-287.96-121.81-6.4-1.07-12.24-1.28-17.83,1.52,13.28,86.56,98.68,105.91,146.16,124.4Z"/>
  <path class="cls-8" d="M1778.67,113.44c-37.37,71.24-106.91,388.47,15.26,298.6,37.47-27.56,105.22-122.95,117.86-185.93,13.69-68.17-10.26-113.1,7.82-176.46.12-.41.25-.85.39-1.29v-29.99c-8.06,21.39-15.25,43.71-16.2,51.11-5.18,40.34,5.66,90.27,1.94,133.51-5.4,62.75-91.01,178.43-127.69,197.27-22.07,11.34-37.95,12.42-41.55-30.85-5.93-71.14,34.93-242.66,77.44-276.37,42.09-33.38,57.5-6.58,94.82-78.64.63-1.22,2.53-5.27,4.84-10.4h-15.47c-.64,1.31-1.31,2.59-2.01,3.81-36.76,63.66-83.66,41.21-117.45,105.63Z"/>
  <path class="cls-18" d="M1555.93,101.13c27.93-8.52,68.18-47.23,75.62-97.13h-86.05c-17.54,42.77-36.24,111.36,10.43,97.13Z"/>
  <path class="cls-26" d="M1362.77,496.94c-6.93,32.09-14.21,63.92-22.03,95.34,11.93-30.29,18.3-73.44,22.03-95.34Z"/>
  <path class="cls-6" d="M889.17,21.86c-10.7,5.07-21.43-.96-30.11,13.26-21.24,50.61-41.65,102.34-60.31,155.37l3.23,1.77,59.71-127.5c4.23-6.15,9.16,1.58,7.01,9.38l-58.71,124.09c-1.28,18.27,6.36.99,9.49-5.3,7.11-14.3,50.42-113.12,54.8-115.06,4.81-2.13,7.3,6.44,4.41,12.25l-58.03,123.38c-1.64,4.43.74,8.52,3.74,5.94l58.69-125.72c3.08-6.36,9.85.71,7.79,7.16l-58.89,123.82c-2.9,8.46-.89,12.85,4.07,6.47,4.41-5.67,13.22-23.34,17.7-31.28,16.01-28.35,36.52-62.83,50.69-92.59,12.52-26.28,4.41-32.9,4.21-59.38-.09-12.09,5.41-27.87,12.55-43.91h-16.76c-4.57,7.87-9.79,15.26-15.29,17.86Z"/>
  <path class="cls-20" d="M1307.97,81.51c-13.66,6.47-27.36-1.23-38.44,16.92-18.77,44.73-37.02,90.17-54.39,136.35-7.72,20.52-15.28,41.17-22.6,61.99l4.12,2.26,29.35-62.67,46.88-100.09c5.4-7.85,11.69,2.02,8.95,11.98l-42.92,90.71-32.03,67.7c-1.63,23.33,8.12,1.27,12.11-6.77,3.64-7.33,14.72-32.03,27.05-59.13,18.39-40.45,39.55-86.27,42.9-87.74,6.14-2.71,9.32,8.23,5.64,15.64l-35.76,76.04-38.31,81.47c-2.09,5.66.94,10.87,4.78,7.58l40.38-86.51,34.53-73.97c3.94-8.12,12.57.91,9.95,9.14l-33.18,69.77-42,88.29c-3.71,10.79-1.13,16.4,5.2,8.26,5.63-7.24,16.88-29.8,22.6-39.93,8.64-15.29,18.3-31.99,27.95-49.04,13.18-23.29,26.32-47.22,36.77-69.16,15.98-33.54,5.63-42,5.37-75.81-.23-29.85,26.23-77.33,42.92-110.77h-21.24c-5.63,12.63-11.31,25.22-17.52,37.02-7.44,14.11-17.8,35.16-29.06,40.5Z"/>
  <path class="cls-20" d="M1291.76,914.37c-25.95-13.3-72.37-6.79-100.58-11.02-9.83-1.47-25.04-3.69-41.47-6.71-11.68-3.61-23.7-5.71-35.26-10.24-7.85-3.08-19.34-6.93-24.86-16.57-6.7-11.68-7.79-27.79-18.35-33.26-33.84-7.15-67.92-12.79-101.99-15.68l.35,4.83,87.64,25.94c4.75,2.98,2.74,12.33-2.04,12.68l-85.52-26.01c-9.75,5.59,1.95,8.52,6.35,10.04,9.99,3.43,76.77,19.74,79.44,24.57,2.94,5.31-.44,11.88-4.5,10.49l-84.9-25.41c-2.88-.34-4.03,4.31-1.56,7.13l86.34,25.33c4.41,1.43,3.45,12.87-.61,12.8l-85.46-26.35c-5.4-.37-6.85,3.95-1.7,7.76,4.58,3.39,16.93,7.68,22.68,10.27,20.54,9.26,45.93,21.85,66.48,28.21,18.14,5.61,18.37-7.37,31.7-18.1,11.95-9.62,39.41,2.67,57.74,8.96,0,.04-.01.07-.02.11,46.99,16.03,94,41.21,140.47,56.42,26.52,2.02,26.56-47.53,9.63-56.2Z"/>
  <path class="cls-24" d="M1849.99,665.04c-.33.32-.67.63-.99.96-10.71,11.11-20.24,23.58-31.41,33.28-10.16,8.83-24.63,22.42-36.34,20.84-14.2-1.91-25.21-17.05-39.68-6.57-40.04,44.43-79.43,90.81-117.12,140.04l3.32,4.51,108.27-107.34c6.83-4.18,10.43,8.67,5.6,16.36l-106.07,104.02c-6.86,20.78,7.27,5.9,12.83.73,12.63-11.74,93.01-97.13,98.78-96.18,6.34,1.04,6.8,13.08,1.67,17.84l-105.06,103.68c-3.24,4.05-1.61,10.67,2.72,9.84l106.52-105.98c5.52-5.28,11.51,8.15,7.18,14.3l-106.21,103.56c-4.65,6.2-4.96,11.67-1.13,11.85,1.05.05,2.41-.3,4.08-1.14.13-.07.27-.14.41-.22,7.09-3.81,22.28-17.85,29.78-23.85,27.32-21.84,61.78-47.63,87.34-72.51,22.56-21.96,14.86-35.86,22.35-67.5,7.5-31.67,52.14-64.53,73.88-86.43,13.17-9.92,32.35-24.12,49.29-37.3v-56.74l-70.01,79.95Z"/>
  <path class="cls-22" d="M25.71,154.84c.7-20.29,17.29-49.16,31.09-72.86,6.11-10.49,11.68-19.97,15.08-27.23.95-2.04,2.19-3.69,2-6.57l-15.54-1.65-.2-.02c-2.15,3.93-4.26,7.95-6.34,11.99-2.82,5.45-5.61,10.95-8.43,16.4-3.83,7.4-7.73,14.69-11.88,21.58-6.39,10.61-15.34,26.48-24.49,29.78-2.36.85-4.69,1.18-7,1.32v68.97c3.37-1.05,7.29,5.09,5.38,10.21l-5.38,9.87v30.15c6.8-10.9,13.28-21.73,18.9-32.03,13.84-25.35,5.88-32.96,6.81-59.9Z"/>
  <path class="cls-26" d="M1464.02,4c-5.01,21.05-10.71,47.56-12.82,56.6-26.43,112.84-46.93,230.08-69.74,345.55-3.5,17.72-7.06,35.4-10.7,53.01-1.89,9.13-3.8,18.25-5.73,27.34-.12-.04-.25-.09-.37-.12-.33,1.83-.65,3.66-.99,5.49-.28,1.52-.57,3.22-.89,5.07-3.73,21.89-10.1,65.05-22.03,95.34-2.37,6.02-4.96,11.53-7.8,16.27-10.21,6-20.54,10.53-30.58,9.11-4.78-1.74-9.59-4.2-14.36-6.85,0,.02-.02.04-.03.06-2.37-2.02-4.7-4.53-7.01-7.59-14.93-19.91-2.99-71.05,9.82-112.85,6.49-21.16,13.2-39.93,16.76-51.02.67-2.08,1.35-4.15,2.02-6.22,10.84-33.53,22.14-66.72,33.61-99.79,27.83-80.25,56.67-159.79,82.34-241.63,2.37-7.55,17.32-54.83,26.47-87.76h-13.73c-29.69,107.19-66.06,209.13-101.58,311.66-13.27,38.31-26.43,76.7-39.07,115.47-3.33,10.22-6.63,20.47-9.88,30.75-3.18,10.04-6.84,20.57-10.35,31.42-12.04,37.16-22.31,77.97-5.12,114.82,9.76,20.93,26.56,32.13,41.09,28.58,12.16.46,25.19-9.11,32.85-25.4,2.82-6,4.71-12.1,5.9-18.26,10.11-23.9,13.31-51.89,17.76-75.62.17-.89.33-1.78.49-2.67,3.89-17.35,7.64-34.86,11.28-52.5,3.35-16.21,6.61-32.51,9.82-48.89,16.24-83.01,31.07-167.74,48.53-249.15,11.55-53.86,25.08-106.71,37.29-160.21h-13.26Z"/>
  <path class="cls-12" d="M1256.82,426.79c-27.19-5.8-57.8,4.31-86.02,8.15-4.41.6-8.75,1.05-13.02,1.26-6.61.32-15.25.81-24.95,1.24-16.75-1.27-33.59-2.19-50.21-4.79-15.15-2.37-37.19-5.05-49.29-15.71-14.67-12.93-19.79-32.15-40.41-36.94-18.86-.83-32.76,1.25-48.74,2.37-26.88-.27-53.73-.09-80.49.65-5.65.16-11.3.33-16.94.54l1.58,5.76,6.62.64,86.38,8.38c.92.09,1.81-.02,2.64-.28l25.9,2.51c9.38,2.78,7.44,14.4-1.35,15.63l-67.67-6.91s0,.08-.01.12c0,.03,0,.06,0,.09l-44.15-4.51-8.66.09c-1.4.69-7.65-.16-8.55.44-10,6.71,9.39,8.09,17.14,9.07,9.64,1.22,46.51,3.9,81.55,6.95.01-.13.02-.25.03-.38-11.3-1.22-24.53-2.45-38.03-3.62,0-.03,0-.06,0-.09,13.5,1.17,26.73,2.4,38.02,3.62,17.72,1.91,30.69,3.81,32.48,5.44,6.46,5.9,1.46,14.39-6.33,13.41l-14.66-1.45s0-.04,0-.05l-96.7-9.58c-5.4.08-6.64,5.88-1.53,8.86l97.37,9.29s0-.09.01-.13l16.62,1.59c8.46.97,8.86,14.92,1.31,15.53l-10.68-.61-90.88-9.51c-10.09.48-11.95,5.93-1.67,9.65,9.14,3.31,32.87,6.35,44.04,8.49.03,0,.06.01.09.02,5.71,1.32,12.87,3.15,17.35,3.99,21.79,4.07,30.03,9.58,49.27,11.61,34.73,3.66,32.65-12.03,55.32-27.24,8.62-5.78,23.18-7.29,39.77-6.78,10.25.32,22.07,6.56,34.23,9.81.02.06.03.12.05.19,48.67,10.2,95.65,34.9,144.39,44.72.17.03.34.06.51.06,7.58.25,13.67-6.1,17.86-15.36,10.17-22.52,9.04-62.25-9.58-66.22Z"/>
</svg>